ffmpeg started on 2025-05-28 at 10:59:35
Report written to "D:\Convert\FFMetrics\reports\ssim_report-6.txt"
Log level: 32
Command line:
ffmpeg -hide_banner -nostdin -i "G:\\\xc0\xed\xe8\xec\xe5\\\xce\xed\xe3\xee\xe8\xed\xe3\xe8\\!_36_\xce\xf1\xe5\xed\xfc_2024\\JamClub\\MF \xcf\xf0\xe8\xe7\xf0\xe0\xea\\\xd2\xc2-2\\[JamClub] MF Ghost 2 - 05_HEVC.mkv" -i "G:\\\xc0\xed\xe8\xec\xe5\\\xce\xed\xe3\xee\xe8\xed\xe3\xe8\\!_36_\xce\xf1\xe5\xed\xfc_2024\\JamClub\\MF \xcf\xf0\xe8\xe7\xf0\xe0\xea\\\xd2\xc2-2\\[JamClub] MF Ghost 2 - 05.mp4" -lavfi "[0:v]settb=AVTB,setpts=PTS-STARTPTS,format=pix_fmts=yuv420p10,fps=24000/1001,scale=1920:1080:flags=bicubic[main];[1:v]settb=AVTB,setpts=PTS-STARTPTS,format=pix_fmts=yuv420p,fps=24000/1001,scale=1920:1080:flags=bicubic[ref];[main][ref]ssim=eof_action=endall:stats_file='D\\:/Convert/FFMetrics/logs/ssim_logfile-6.txt'" -f null -
Input #0, matroska,webm, from 'G:\Аниме\Онгоинги\!_36_Осень_2024\JamClub\MF Призрак\ТВ-2\[JamClub] MF Ghost 2 - 05_HEVC.mkv':
  Metadata:
    COMPATIBLE_BRANDS: isomiso2avc1mp41
    MAJOR_BRAND     : isom
    MINOR_VERSION   : 512
    ENCODER         : Lavf61.7.100
  Duration: 00:24:02.37, start: -0.001000, bitrate: 2546 kb/s
  Stream #0:0: Video: hevc (Main 10), yuv420p10le(tv, bt709, progressive), 1920x1080 [SAR 1:1 DAR 16:9], 23.98 fps, 23.98 tbr, 1k tbn (default)
      Metadata:
        HANDLER_NAME    : VideoHandler
        VENDOR_ID       : [0][0][0][0]
        ENCODER         : Lavc61.19.100 libx265
        BPS             : 2347060
        DURATION        : 00:24:02.232708333
        NUMBER_OF_FRAMES: 34579
        NUMBER_OF_BYTES : 423125746
        _STATISTICS_WRITING_APP: mkvpropedit v66.0.0 ('Josie') 64-bit
        _STATISTICS_WRITING_DATE_UTC: 2025-05-27 12:37:49
        _STATISTICS_TAGS: BPS DURATION NUMBER_OF_FRAMES NUMBER_OF_BYTES
  Stream #0:1(eng): Audio: aac (LC), 48000 Hz, stereo, fltp (default)
      Metadata:
        HANDLER_NAME    : SoundHandler
        VENDOR_ID       : [0][0][0][0]
        ENCODER         : Lavc61.19.100 aac
        BPS             : 195775
        DURATION        : 00:24:02.328000000
        NUMBER_OF_FRAMES: 67610
        NUMBER_OF_BYTES : 35296531
        _STATISTICS_WRITING_APP: mkvpropedit v66.0.0 ('Josie') 64-bit
        _STATISTICS_WRITING_DATE_UTC: 2025-05-27 12:37:49
        _STATISTICS_TAGS: BPS DURATION NUMBER_OF_FRAMES NUMBER_OF_BYTES
Input #1, mov,mp4,m4a,3gp,3g2,mj2, from 'G:\Аниме\Онгоинги\!_36_Осень_2024\JamClub\MF Призрак\ТВ-2\[JamClub] MF Ghost 2 - 05.mp4':
  Metadata:
    major_brand     : isom
    minor_version   : 512
    compatible_brands: isomiso2avc1mp41
    encoder         : Lavf60.16.100
  Duration: 00:24:02.35, start: 0.000000, bitrate: 5789 kb/s
  Stream #1:0[0x1](und): Video: h264 (High) (avc1 / 0x31637661), yuv420p(progressive), 1920x1080 [SAR 1:1 DAR 16:9], 5591 kb/s, 23.98 fps, 23.98 tbr, 90k tbn (default)
      Metadata:
        handler_name    : VideoHandler
        vendor_id       : [0][0][0][0]
  Stream #1:1[0x2](eng): Audio: aac (LC) (mp4a / 0x6134706D), 48000 Hz, stereo, fltp, 191 kb/s (default)
      Metadata:
        handler_name    : SoundHandler
        vendor_id       : [0][0][0][0]
Stream mapping:
  Stream #0:0 (hevc) -> settb:default
  Stream #1:0 (h264) -> settb:default
  ssim:default -> Stream #0:0 (wrapped_avframe)
  Stream #0:1 -> #0:1 (aac (native) -> pcm_s16le (native))
Output #0, null, to 'pipe:':
  Metadata:
    COMPATIBLE_BRANDS: isomiso2avc1mp41
    MAJOR_BRAND     : isom
    MINOR_VERSION   : 512
    encoder         : Lavf61.7.100
  Stream #0:0: Video: wrapped_avframe, yuv420p10le(tv, bt709, progressive), 1920x1080 [SAR 1:1 DAR 16:9], q=2-31, 200 kb/s, 23.98 fps, 23.98 tbn
      Metadata:
        encoder         : Lavc61.19.100 wrapped_avframe
  Stream #0:1(eng): Audio: pcm_s16le, 48000 Hz, stereo, s16, 1536 kb/s (default)
      Metadata:
        HANDLER_NAME    : SoundHandler
        VENDOR_ID       : [0][0][0][0]
        _STATISTICS_TAGS: BPS DURATION NUMBER_OF_FRAMES NUMBER_OF_BYTES
        BPS             : 195775
        DURATION        : 00:24:02.328000000
        NUMBER_OF_FRAMES: 67610
        NUMBER_OF_BYTES : 35296531
        _STATISTICS_WRITING_APP: mkvpropedit v66.0.0 ('Josie') 64-bit
        _STATISTICS_WRITING_DATE_UTC: 2025-05-27 12:37:49
        encoder         : Lavc61.19.100 pcm_s16le
frame=  105 fps=0.0 q=-0.0 size=N/A time=00:00:04.37 bitrate=N/A speed=8.57x    frame=  256 fps=251 q=-0.0 size=N/A time=00:00:10.67 bitrate=N/A speed=10.5x    frame=  440 fps=285 q=-0.0 size=N/A time=00:00:18.35 bitrate=N/A speed=11.9x    frame=  669 fps=326 q=-0.0 size=N/A time=00:00:27.90 bitrate=N/A speed=13.6x    frame=  852 fps=331 q=-0.0 size=N/A time=00:00:35.53 bitrate=N/A speed=13.8x    frame= 1053 fps=342 q=-0.0 size=N/A time=00:00:43.91 bitrate=N/A speed=14.3x    frame= 1279 fps=355 q=-0.0 size=N/A time=00:00:53.34 bitrate=N/A speed=14.8x    frame= 1421 fps=345 q=-0.0 size=N/A time=00:00:59.26 bitrate=N/A speed=14.4x    frame= 1585 fps=342 q=-0.0 size=N/A time=00:01:06.10 bitrate=N/A speed=14.3x    frame= 1780 fps=345 q=-0.0 size=N/A time=00:01:14.24 bitrate=N/A speed=14.4x    frame= 1958 fps=346 q=-0.0 size=N/A time=00:01:21.66 bitrate=N/A speed=14.4x    frame= 2139 fps=346 q=-0.0 size=N/A time=00:01:29.21 bitrate=N/A speed=14.4x    frame= 2310 fps=345 q=-0.0 size=N/A time=00:01:36.34 bitrate=N/A speed=14.4x    frame= 2510 fps=348 q=-0.0 size=N/A time=00:01:44.68 bitrate=N/A speed=14.5x    frame= 2669 fps=346 q=-0.0 size=N/A time=00:01:51.31 bitrate=N/A speed=14.4x    frame= 2814 fps=341 q=-0.0 size=N/A time=00:01:57.36 bitrate=N/A speed=14.2x    frame= 2960 fps=338 q=-0.0 size=N/A time=00:02:03.45 bitrate=N/A speed=14.1x    frame= 3124 fps=337 q=-0.0 size=N/A time=00:02:10.29 bitrate=N/A speed=14.1x    frame= 3267 fps=334 q=-0.0 size=N/A time=00:02:16.26 bitrate=N/A speed=13.9x    frame= 3396 fps=330 q=-0.0 size=N/A time=00:02:21.64 bitrate=N/A speed=13.8x    frame= 3588 fps=332 q=-0.0 size=N/A time=00:02:29.64 bitrate=N/A speed=13.8x    frame= 3816 fps=336 q=-0.0 size=N/A time=00:02:39.15 bitrate=N/A speed=  14x    frame= 4058 fps=342 q=-0.0 size=N/A time=00:02:49.25 bitrate=N/A speed=14.3x    frame= 4293 fps=347 q=-0.0 size=N/A time=00:02:59.05 bitrate=N/A speed=14.5x    frame= 4485 fps=348 q=-0.0 size=N/A time=00:03:07.06 bitrate=N/A speed=14.5x    frame= 4701 fps=351 q=-0.0 size=N/A time=00:03:16.07 bitrate=N/A speed=14.6x    frame= 4911 fps=353 q=-0.0 size=N/A time=00:03:24.82 bitrate=N/A speed=14.7x    frame= 5116 fps=354 q=-0.0 size=N/A time=00:03:33.37 bitrate=N/A speed=14.8x    frame= 5346 fps=358 q=-0.0 size=N/A time=00:03:42.97 bitrate=N/A speed=14.9x    frame= 5551 fps=359 q=-0.0 size=N/A time=00:03:51.52 bitrate=N/A speed=  15x    frame= 5760 fps=361 q=-0.0 size=N/A time=00:04:00.24 bitrate=N/A speed=  15x    frame= 5977 fps=362 q=-0.0 size=N/A time=00:04:09.29 bitrate=N/A speed=15.1x    frame= 6180 fps=363 q=-0.0 size=N/A time=00:04:17.75 bitrate=N/A speed=15.2x    frame= 6398 fps=365 q=-0.0 size=N/A time=00:04:26.84 bitrate=N/A speed=15.2x    frame= 6630 fps=368 q=-0.0 size=N/A time=00:04:36.52 bitrate=N/A speed=15.3x    frame= 6840 fps=369 q=-0.0 size=N/A time=00:04:45.28 bitrate=N/A speed=15.4x    frame= 7044 fps=369 q=-0.0 size=N/A time=00:04:53.79 bitrate=N/A speed=15.4x    frame= 7242 fps=370 q=-0.0 size=N/A time=00:05:02.05 bitrate=N/A speed=15.4x    frame= 7446 fps=370 q=-0.0 size=N/A time=00:05:10.56 bitrate=N/A speed=15.4x    frame= 7688 fps=373 q=-0.0 size=N/A time=00:05:20.65 bitrate=N/A speed=15.6x    frame= 7954 fps=376 q=-0.0 size=N/A time=00:05:31.74 bitrate=N/A speed=15.7x    frame= 8216 fps=379 q=-0.0 size=N/A time=00:05:42.67 bitrate=N/A speed=15.8x    frame= 8481 fps=383 q=-0.0 size=N/A time=00:05:53.72 bitrate=N/A speed=  16x    frame= 8673 fps=382 q=-0.0 size=N/A time=00:06:01.73 bitrate=N/A speed=15.9x    frame= 8887 fps=383 q=-0.0 size=N/A time=00:06:10.66 bitrate=N/A speed=  16x    frame= 9120 fps=385 q=-0.0 size=N/A time=00:06:20.38 bitrate=N/A speed=  16x    frame= 9306 fps=384 q=-0.0 size=N/A time=00:06:28.13 bitrate=N/A speed=  16x    frame= 9482 fps=383 q=-0.0 size=N/A time=00:06:35.47 bitrate=N/A speed=  16x    frame= 9680 fps=383 q=-0.0 size=N/A time=00:06:43.73 bitrate=N/A speed=  16x    frame= 9910 fps=384 q=-0.0 size=N/A time=00:06:53.32 bitrate=N/A speed=  16x    frame=10133 fps=385 q=-0.0 size=N/A time=00:07:02.63 bitrate=N/A speed=16.1x    frame=10372 fps=387 q=-0.0 size=N/A time=00:07:12.59 bitrate=N/A speed=16.1x    frame=10564 fps=386 q=-0.0 size=N/A time=00:07:20.60 bitrate=N/A speed=16.1x    frame=10766 fps=387 q=-0.0 size=N/A time=00:07:29.03 bitrate=N/A speed=16.1x    frame=10969 fps=387 q=-0.0 size=N/A time=00:07:37.49 bitrate=N/A speed=16.1x    frame=11157 fps=386 q=-0.0 size=N/A time=00:07:45.33 bitrate=N/A speed=16.1x    frame=11351 fps=386 q=-0.0 size=N/A time=00:07:53.43 bitrate=N/A speed=16.1x    frame=11571 fps=387 q=-0.0 size=N/A time=00:08:02.60 bitrate=N/A speed=16.1x    frame=11755 fps=386 q=-0.0 size=N/A time=00:08:10.28 bitrate=N/A speed=16.1x    frame=11955 fps=386 q=-0.0 size=N/A time=00:08:18.62 bitrate=N/A speed=16.1x    frame=12121 fps=385 q=-0.0 size=N/A time=00:08:25.54 bitrate=N/A speed=16.1x    frame=12338 fps=386 q=-0.0 size=N/A time=00:08:34.59 bitrate=N/A speed=16.1x    frame=12551 fps=386 q=-0.0 size=N/A time=00:08:43.48 bitrate=N/A speed=16.1x    frame=12755 fps=386 q=-0.0 size=N/A time=00:08:51.98 bitrate=N/A speed=16.1x    frame=12969 fps=387 q=-0.0 size=N/A time=00:09:00.91 bitrate=N/A speed=16.1x    frame=13170 fps=387 q=-0.0 size=N/A time=00:09:09.29 bitrate=N/A speed=16.1x    frame=13368 fps=387 q=-0.0 size=N/A time=00:09:17.55 bitrate=N/A speed=16.1x    frame=13610 fps=388 q=-0.0 size=N/A time=00:09:27.65 bitrate=N/A speed=16.2x    frame=13819 fps=388 q=-0.0 size=N/A time=00:09:36.36 bitrate=N/A speed=16.2x    frame=14021 fps=388 q=-0.0 size=N/A time=00:09:44.79 bitrate=N/A speed=16.2x    frame=14216 fps=388 q=-0.0 size=N/A time=00:09:52.92 bitrate=N/A speed=16.2x    frame=14463 fps=389 q=-0.0 size=N/A time=00:10:03.22 bitrate=N/A speed=16.2x    frame=14671 fps=390 q=-0.0 size=N/A time=00:10:11.90 bitrate=N/A speed=16.3x    frame=14881 fps=390 q=-0.0 size=N/A time=00:10:20.66 bitrate=N/A speed=16.3x    frame=15087 fps=390 q=-0.0 size=N/A time=00:10:29.25 bitrate=N/A speed=16.3x    frame=15285 fps=390 q=-0.0 size=N/A time=00:10:37.51 bitrate=N/A speed=16.3x    frame=15492 fps=390 q=-0.0 size=N/A time=00:10:46.14 bitrate=N/A speed=16.3x    frame=15686 fps=390 q=-0.0 size=N/A time=00:10:54.23 bitrate=N/A speed=16.3x    frame=15911 fps=390 q=-0.0 size=N/A time=00:11:03.62 bitrate=N/A speed=16.3x    frame=16117 fps=391 q=-0.0 size=N/A time=00:11:12.21 bitrate=N/A speed=16.3x    frame=16321 fps=391 q=-0.0 size=N/A time=00:11:20.72 bitrate=N/A speed=16.3x    frame=16546 fps=391 q=-0.0 size=N/A time=00:11:30.10 bitrate=N/A speed=16.3x    frame=16767 fps=392 q=-0.0 size=N/A time=00:11:39.32 bitrate=N/A speed=16.3x    frame=16963 fps=392 q=-0.0 size=N/A time=00:11:47.49 bitrate=N/A speed=16.3x    frame=17176 fps=392 q=-0.0 size=N/A time=00:11:56.38 bitrate=N/A speed=16.3x    frame=17404 fps=392 q=-0.0 size=N/A time=00:12:05.89 bitrate=N/A speed=16.4x    frame=17616 fps=393 q=-0.0 size=N/A time=00:12:14.73 bitrate=N/A speed=16.4x    frame=17820 fps=393 q=-0.0 size=N/A time=00:12:23.24 bitrate=N/A speed=16.4x    frame=18073 fps=394 q=-0.0 size=N/A time=00:12:33.79 bitrate=N/A speed=16.4x    frame=18302 fps=394 q=-0.0 size=N/A time=00:12:43.34 bitrate=N/A speed=16.4x    frame=18504 fps=394 q=-0.0 size=N/A time=00:12:51.77 bitrate=N/A speed=16.4x    frame=18727 fps=395 q=-0.0 size=N/A time=00:13:01.07 bitrate=N/A speed=16.5x    frame=18943 fps=395 q=-0.0 size=N/A time=00:13:10.08 bitrate=N/A speed=16.5x    frame=19169 fps=395 q=-0.0 size=N/A time=00:13:19.50 bitrate=N/A speed=16.5x    frame=19404 fps=396 q=-0.0 size=N/A time=00:13:29.30 bitrate=N/A speed=16.5x    frame=19648 fps=397 q=-0.0 size=N/A time=00:13:39.48 bitrate=N/A speed=16.6x    frame=19847 fps=397 q=-0.0 size=N/A time=00:13:47.78 bitrate=N/A speed=16.5x    frame=20100 fps=398 q=-0.0 size=N/A time=00:13:58.33 bitrate=N/A speed=16.6x    frame=20350 fps=399 q=-0.0 size=N/A time=00:14:08.76 bitrate=N/A speed=16.6x    frame=20624 fps=400 q=-0.0 size=N/A time=00:14:20.19 bitrate=N/A speed=16.7x    frame=20881 fps=401 q=-0.0 size=N/A time=00:14:30.91 bitrate=N/A speed=16.7x    frame=21156 fps=402 q=-0.0 size=N/A time=00:14:42.38 bitrate=N/A speed=16.8x    frame=21409 fps=403 q=-0.0 size=N/A time=00:14:52.93 bitrate=N/A speed=16.8x    frame=21648 fps=404 q=-0.0 size=N/A time=00:15:02.90 bitrate=N/A speed=16.8x    frame=21883 fps=404 q=-0.0 size=N/A time=00:15:12.70 bitrate=N/A speed=16.9x    frame=22119 fps=405 q=-0.0 size=N/A time=00:15:22.54 bitrate=N/A speed=16.9x    frame=22374 fps=405 q=-0.0 size=N/A time=00:15:33.18 bitrate=N/A speed=16.9x    frame=22607 fps=406 q=-0.0 size=N/A time=00:15:42.90 bitrate=N/A speed=16.9x    frame=22787 fps=405 q=-0.0 size=N/A time=00:15:50.40 bitrate=N/A speed=16.9x    frame=23013 fps=406 q=-0.0 size=N/A time=00:15:59.83 bitrate=N/A speed=16.9x    frame=23247 fps=406 q=-0.0 size=N/A time=00:16:09.59 bitrate=N/A speed=16.9x    frame=23427 fps=405 q=-0.0 size=N/A time=00:16:17.10 bitrate=N/A speed=16.9x    frame=23632 fps=405 q=-0.0 size=N/A time=00:16:25.65 bitrate=N/A speed=16.9x    frame=23857 fps=406 q=-0.0 size=N/A time=00:16:35.03 bitrate=N/A speed=16.9x    frame=24083 fps=406 q=-0.0 size=N/A time=00:16:44.46 bitrate=N/A speed=16.9x    frame=24256 fps=405 q=-0.0 size=N/A time=00:16:51.67 bitrate=N/A speed=16.9x    frame=24442 fps=405 q=-0.0 size=N/A time=00:16:59.43 bitrate=N/A speed=16.9x    frame=24675 fps=405 q=-0.0 size=N/A time=00:17:09.15 bitrate=N/A speed=16.9x    frame=24925 fps=406 q=-0.0 size=N/A time=00:17:19.58 bitrate=N/A speed=16.9x    frame=25122 fps=406 q=-0.0 size=N/A time=00:17:27.79 bitrate=N/A speed=16.9x    frame=25341 fps=406 q=-0.0 size=N/A time=00:17:36.93 bitrate=N/A speed=16.9x    frame=25547 fps=406 q=-0.0 size=N/A time=00:17:45.52 bitrate=N/A speed=16.9x    frame=25757 fps=406 q=-0.0 size=N/A time=00:17:54.28 bitrate=N/A speed=16.9x    frame=25973 fps=406 q=-0.0 size=N/A time=00:18:03.29 bitrate=N/A speed=16.9x    frame=26185 fps=406 q=-0.0 size=N/A time=00:18:12.13 bitrate=N/A speed=16.9x    frame=26397 fps=406 q=-0.0 size=N/A time=00:18:20.97 bitrate=N/A speed=16.9x    frame=26617 fps=406 q=-0.0 size=N/A time=00:18:30.15 bitrate=N/A speed=16.9x    frame=26790 fps=406 q=-0.0 size=N/A time=00:18:37.36 bitrate=N/A speed=16.9x    frame=27044 fps=406 q=-0.0 size=N/A time=00:18:47.96 bitrate=N/A speed=  17x    frame=27308 fps=407 q=-0.0 size=N/A time=00:18:58.97 bitrate=N/A speed=  17x    frame=27572 fps=408 q=-0.0 size=N/A time=00:19:09.98 bitrate=N/A speed=  17x    frame=27812 fps=409 q=-0.0 size=N/A time=00:19:19.99 bitrate=N/A speed=  17x    frame=28067 fps=409 q=-0.0 size=N/A time=00:19:30.62 bitrate=N/A speed=17.1x    frame=28334 fps=410 q=-0.0 size=N/A time=00:19:41.76 bitrate=N/A speed=17.1x    frame=28586 fps=411 q=-0.0 size=N/A time=00:19:52.27 bitrate=N/A speed=17.1x    frame=28800 fps=411 q=-0.0 size=N/A time=00:20:01.20 bitrate=N/A speed=17.1x    frame=28991 fps=410 q=-0.0 size=N/A time=00:20:09.16 bitrate=N/A speed=17.1x    frame=29200 fps=410 q=-0.0 size=N/A time=00:20:17.88 bitrate=N/A speed=17.1x    frame=29398 fps=410 q=-0.0 size=N/A time=00:20:26.14 bitrate=N/A speed=17.1x    frame=29567 fps=409 q=-0.0 size=N/A time=00:20:33.19 bitrate=N/A speed=17.1x    frame=29803 fps=410 q=-0.0 size=N/A time=00:20:43.03 bitrate=N/A speed=17.1x    frame=30043 fps=410 q=-0.0 size=N/A time=00:20:53.04 bitrate=N/A speed=17.1x    frame=30246 fps=410 q=-0.0 size=N/A time=00:21:01.51 bitrate=N/A speed=17.1x    frame=30463 fps=410 q=-0.0 size=N/A time=00:21:10.56 bitrate=N/A speed=17.1x    frame=30633 fps=409 q=-0.0 size=N/A time=00:21:17.65 bitrate=N/A speed=17.1x    frame=30832 fps=409 q=-0.0 size=N/A time=00:21:25.95 bitrate=N/A speed=17.1x    frame=31003 fps=409 q=-0.0 size=N/A time=00:21:33.08 bitrate=N/A speed=17.1x    frame=31238 fps=409 q=-0.0 size=N/A time=00:21:42.88 bitrate=N/A speed=17.1x    frame=31501 fps=410 q=-0.0 size=N/A time=00:21:53.85 bitrate=N/A speed=17.1x    frame=31733 fps=410 q=-0.0 size=N/A time=00:22:03.53 bitrate=N/A speed=17.1x    frame=31951 fps=410 q=-0.0 size=N/A time=00:22:12.62 bitrate=N/A speed=17.1x    frame=32163 fps=410 q=-0.0 size=N/A time=00:22:21.46 bitrate=N/A speed=17.1x    frame=32378 fps=410 q=-0.0 size=N/A time=00:22:30.43 bitrate=N/A speed=17.1x    frame=32618 fps=411 q=-0.0 size=N/A time=00:22:40.44 bitrate=N/A speed=17.1x    frame=32843 fps=411 q=-0.0 size=N/A time=00:22:49.82 bitrate=N/A speed=17.1x    frame=33012 fps=410 q=-0.0 size=N/A time=00:22:56.87 bitrate=N/A speed=17.1x    frame=33235 fps=410 q=-0.0 size=N/A time=00:23:06.17 bitrate=N/A speed=17.1x    frame=33447 fps=410 q=-0.0 size=N/A time=00:23:15.01 bitrate=N/A speed=17.1x    frame=33674 fps=411 q=-0.0 size=N/A time=00:23:24.48 bitrate=N/A speed=17.1x    frame=33876 fps=410 q=-0.0 size=N/A time=00:23:32.91 bitrate=N/A speed=17.1x    frame=34085 fps=410 q=-0.0 size=N/A time=00:23:41.62 bitrate=N/A speed=17.1x    frame=34307 fps=411 q=-0.0 size=N/A time=00:23:50.88 bitrate=N/A speed=17.1x    frame=34526 fps=411 q=-0.0 size=N/A time=00:24:00.02 bitrate=N/A speed=17.1x    [Parsed_ssim_10 @ 00000164aa7a7100] SSIM Y:0.991563 (20.737978) U:0.995910 (23.882464) V:0.995904 (23.876452) All:0.993011 (21.555711)
[out#0/null @ 000001649b28cf00] video:14858KiB audio:270440KiB subtitle:0KiB other streams:0KiB global headers:0KiB muxing overhead: unknown
frame=34579 fps=411 q=-0.0 Lsize=N/A time=00:24:02.23 bitrate=N/A speed=17.1x    
